HIERARCHY
ROOT Hips
{
	OFFSET 0.000000 0.000000 0.000000 
	CHANNELS 6 Xposition Yposition Zposition Zrotation Yrotation Xrotation
	JOINT LeftUpLeg
	{
		OFFSET 1.363060 -1.794630 0.839290 
		CHANNELS 3 Zrotation Yrotation Xrotation
		JOINT LeftLeg
		{
			OFFSET 2.448110 -6.726130 0.000000 
			CHANNELS 3 Zrotation Yrotation Xrotation
			JOINT LeftFoot
			{
				OFFSET 2.562200 -7.039590 0.000000 
				CHANNELS 3 Zrotation Yrotation Xrotation
				JOINT LeftToeBase
				{
					OFFSET 0.157640 -0.433110 2.322550 
					CHANNELS 3 Zrotation Yrotation Xrotation
					End Site
					{
						OFFSET 0.000000 0.000000 0.000000 
					}
				}
			}
		}
	}
	JOINT RightUpLeg
	{
		OFFSET -1.305520 -1.794630 0.839290 
		CHANNELS 3 Zrotation Yrotation Xrotation
		JOINT RightLeg
		{
			OFFSET -2.542530 -6.985550 0.000000 
			CHANNELS 3 Zrotation Yrotation Xrotation
			JOINT RightFoot
			{
				OFFSET -2.568260 -7.056230 0.000000 
				CHANNELS 3 Zrotation Yrotation Xrotation
				JOINT RightToeBase
				{
					OFFSET -0.164730 -0.452590 2.363150 
					CHANNELS 3 Zrotation Yrotation Xrotation
					End Site
					{
						OFFSET 0.000000 0.000000 0.000000 
					}
				}
			}
		}
	}
	JOINT Spine
	{
		OFFSET 0.028270 2.035590 -0.193380 
		CHANNELS 3 Zrotation Yrotation Xrotation
		JOINT Spine1
		{
			OFFSET 0.056720 2.048850 -0.042750 
			CHANNELS 3 Zrotation Yrotation Xrotation
			JOINT Neck1
			{
				OFFSET -0.054170 1.746240 0.172020 
				CHANNELS 3 Zrotation Yrotation Xrotation
				JOINT Head
				{
					OFFSET 0.104070 1.761360 -0.123970 
					CHANNELS 3 Zrotation Yrotation Xrotation
					End Site
					{
						OFFSET 0.000000 0.000000 0.000000 
					}
				}
			}
			JOINT LeftArm
			{
				OFFSET 3.362410 1.200890 -0.311210 
				CHANNELS 3 Zrotation Yrotation Xrotation
				JOINT LeftForeArm
				{
					OFFSET 4.983000 -0.000000 -0.000000 
					CHANNELS 3 Zrotation Yrotation Xrotation
					JOINT LeftHand
					{
						OFFSET 3.483560 -0.000000 -0.000000 
						CHANNELS 3 Zrotation Yrotation Xrotation
						JOINT LeftHandIndex1
						{
							OFFSET 0.715260 -0.000000 -0.000000 
							CHANNELS 3 Zrotation Yrotation Xrotation
							End Site
							{
								OFFSET 0.000000 0.000000 0.000000 
							}
						}
					}
				}
			}
			JOINT RightArm
			{
				OFFSET -3.136600 1.374050 -0.404650 
				CHANNELS 3 Zrotation Yrotation Xrotation
				JOINT RightForeArm
				{
					OFFSET -5.241900 -0.000000 -0.000000 
					CHANNELS 3 Zrotation Yrotation Xrotation
					JOINT RightHand
					{
						OFFSET -3.444170 -0.000000 -0.000000 
						CHANNELS 3 Zrotation Yrotation Xrotation
						JOINT RightHandIndex1
						{
							OFFSET -0.622530 -0.000000 -0.000000 
							CHANNELS 3 Zrotation Yrotation Xrotation
							End Site
							{
								OFFSET 0.000000 0.000000 0.000000 
							}
						}
					}
				}
			}
		}
	}
}
MOTION
Frames: 7
Frame Time: 0.041667
0.101532 17.918714 -3.512680 -1.407003 2.771245 2.608706 -13.680179 0.861375 -0.252418 -0.571328 3.531385 9.964936 0.034258 1.280222 -3.484127 2.506800 -9.850200 -28.493000 18.992933 -0.946980 -0.762234 -0.890561 -6.155469 14.680606 0.637658 -7.328857 -9.355339 -0.479500 -4.440500 12.319300 0.861861 -3.336263 -2.757756 3.493853 -2.095456 -3.270563 8.916376 -13.538043 14.242285 1.915900 -6.354000 7.382000 -95.032828 10.219817 2.884180 15.750402 -33.451265 -4.899011 -0.412341 0.699352 5.074949 -7.125000 0.000000 0.000000 87.231570 1.462928 15.187558 -5.388386 20.635578 -0.736807 -1.184223 -2.105435 8.656260 7.125000 0.000000 0.000000 
0.102628 17.919610 -3.507100 -1.344553 2.635858 2.608328 -13.754481 0.923426 -0.210987 -0.573103 3.519770 9.935402 0.029803 1.306826 -3.501505 2.590400 -10.000400 -28.978100 18.927344 -0.820485 -0.728686 -0.894551 -6.171323 14.724323 0.631952 -7.298533 -9.387465 -0.485400 -4.467500 12.395900 0.878874 -3.299968 -2.767633 3.550826 -2.075858 -3.185436 9.428154 -12.749179 13.268158 2.191400 -5.994300 6.892300 -95.124147 10.186976 2.855239 15.768924 -33.471660 -4.906453 -0.410931 0.701283 5.295615 -7.125000 0.000000 0.000000 87.368576 1.589105 14.225413 -5.248049 20.404689 -0.717540 -1.229226 -2.061796 8.799148 7.125000 0.000000 0.000000 
0.104123 17.919411 -3.503613 -1.296442 2.562691 2.610470 -13.818411 0.954073 -0.200596 -0.573246 3.526108 9.951074 0.017562 1.378736 -3.493157 2.640900 -10.089700 -29.267600 18.865631 -0.783724 -0.743030 -0.900458 -6.192449 14.787548 0.622817 -7.242975 -9.398936 -0.490500 -4.490800 12.461700 0.874858 -3.295495 -2.766579 3.546043 -2.077049 -3.144726 9.447275 -12.659663 13.526443 2.208400 -5.940600 6.981000 -95.135261 10.190735 2.978705 15.812618 -33.525506 -4.926000 -0.408787 0.704336 5.209674 -7.125000 0.000000 0.000000 87.538427 1.703278 13.615438 -5.056015 20.089688 -0.683721 -1.307676 -1.985925 8.063711 7.125000 0.000000 0.000000 
0.106016 17.918116 -3.501819 -1.306530 2.522483 2.602922 -13.818551 0.985670 -0.224917 -0.570359 3.546190 10.004974 0.009590 1.427727 -3.505124 2.666800 -10.135000 -29.415100 18.865506 -0.798017 -0.761674 -0.905715 -6.208023 14.835103 0.609683 -7.160197 -9.400780 -0.491700 -4.496100 12.476700 0.875985 -3.297981 -2.767967 3.504132 -2.082270 -3.124187 9.322332 -12.628816 13.928963 2.167800 -5.917000 7.116200 -95.103821 10.185381 3.112899 15.825532 -33.544664 -4.930091 -0.407954 0.704234 5.149685 -7.125000 0.000000 0.000000 87.766644 1.754225 12.699123 -4.977433 19.966758 -0.680068 -1.364892 -1.932094 8.147123 7.125000 0.000000 0.000000 
0.106714 17.916023 -3.499727 -1.380232 2.478818 2.570911 -13.734204 1.023724 -0.230791 -0.569070 3.556082 10.030941 0.010999 1.434638 -3.614461 2.599800 -10.017100 -29.032100 18.951272 -0.790382 -0.724219 -0.906764 -6.211510 14.845243 0.606940 -7.142926 -9.421445 -0.496900 -4.519400 12.542700 0.916756 -3.308174 -2.762620 3.488026 -2.091870 -3.110506 9.250025 -12.827191 14.381505 2.135300 -6.003400 7.310000 -95.097901 10.202324 3.259246 15.902550 -33.635582 -4.962700 -0.408887 0.710086 5.155239 -7.125000 0.000000 0.000000 88.026944 1.727396 11.280990 -5.025154 20.055374 -0.716254 -1.392414 -1.896583 9.368628 7.125000 0.000000 0.000000 
0.106913 17.914130 -3.497037 -1.502498 2.430407 2.525084 -13.585346 1.071630 -0.224086 -0.567833 3.561512 10.047088 0.015257 1.428381 -3.750765 2.482400 -9.805800 -28.350200 19.106406 -0.758928 -0.655446 -0.905298 -6.207535 14.830653 0.612261 -7.175328 -9.430269 -0.501900 -4.541800 12.606200 0.971969 -3.317640 -2.753922 3.468304 -2.099843 -3.059326 8.920780 -12.585545 14.437837 2.029400 -5.900500 7.254200 -95.076109 10.249036 3.492999 16.057969 -33.816877 -5.034283 -0.410169 0.723613 5.033297 -7.125000 0.000000 0.000000 88.506902 1.709927 8.620567 -5.164491 20.295360 -0.794929 -1.424958 -1.848845 12.034028 7.125000 0.000000 0.000000 
0.108407 17.913433 -3.494048 -1.516466 2.388039 2.512933 -13.576913 1.124124 -0.265958 -0.562557 3.587110 10.119525 0.020068 1.408007 -3.812757 2.439900 -9.727800 -28.099700 19.116953 -0.784531 -0.645129 -0.905275 -6.208052 14.830066 0.610878 -7.163928 -9.408648 -0.489900 -4.487800 12.453300 0.972546 -3.344702 -2.760301 3.464053 -2.112362 -3.023310 8.636321 -12.325344 14.476201 1.942200 -5.786400 7.194200 -95.046743 10.290563 3.579332 16.132035 -33.900872 -5.069830 -0.411024 0.729855 4.952625 -7.125000 0.000000 0.000000 88.595330 1.608079 8.363466 -5.210193 20.373126 -0.809792 -1.421029 -1.856909 12.413432 7.125000 0.000000 0.000000 
